<svg xmlns="http://www.w3.org/2000/svg" xmlns:xlink="http://www.w3.org/1999/xlink" viewBox="30 30 407.5 407.5">
  <path fill="none" fill-rule="evenodd" stroke="#ff0000" stroke-width="16.7105" id="path581" d="m367.318298,295.875092c8.070892,-4.5849 19.803589,-20.354187 4.9422,-25.44278c-62.492493,-11.729523 -251.606995,70.386688 -266.889992,81.416779c-22.04496,12.426697 -40.468933,34.7771 -27.183243,40.708313c9.983467,7.270386 34.523064,14.518311 58.07325,-16.537811c13.6586,-15.607483 51.462692,-72.129578 55.602203,-89.0495c12.577377,-31.454788 43.200897,-157.223572 46.952896,-175.554611c2.39769,-13.225128 5.069382,-42.859848 -8.649307,-53.429703c-6.848312,-3.90049 -13.218689,2.416271 -17.298401,10.177078c-15.467972,44.472527 23.010498,103.153137 29.65451,111.947937c12.728912,20.906189 61.438889,87.412399 80.314072,109.403702c13.765717,12.650909 34.341217,16.171906 44.481812,6.360596z"/>
</svg>
