<?xml version="1.0" encoding="UTF-8" standalone="no"?>
<svg xmlns="http://www.w3.org/2000/svg" version="1.1" viewBox="0 0 316.48454 44.060467">
  <g fill="#000" transform="translate(-202.1228,-636.78608) scale(1.0776482,0.92794657)">
    <path d="m 223.1778,709.35509 0,23.17695 -2.73062,0 -1.2654,-3.19682 q -1.53181,1.19881 -2.79722,1.99802 -1.19881,0.7992 -2.46422,1.1988 -1.26541,0.46621 -2.66402,0.59941 -1.33201,0.1998 -3.19682,0.1998 -5.66104,0 -9.32406,-1.73161 -3.59643,-1.73161 -6.06064,-5.59444 -1.93142,-3.06362 -3.06362,-7.12625 -1.06561,-4.06263 -1.06561,-8.32505 0,-5.19484 1.39861,-9.45727 1.39861,-4.32903 3.99603,-7.32605 2.59741,-3.06362 6.19384,-4.72863 3.66302,-1.66501 8.12525,-1.66501 3.72963,0 6.59345,1.39861 2.93042,1.39861 4.66203,3.92943 0.8658,1.2654 1.39861,2.93041 0.5328,1.66502 0.9324,4.19583 l -4.32903,2.06462 0,-0.79921 q 0,-2.73062 -0.4662,-4.39563 -0.3996,-1.73161 -1.53181,-3.19682 -2.39761,-3.19682 -6.59344,-3.19682 -3.39663,0 -5.86084,1.99801 -2.39762,1.93142 -3.59643,5.52784 -0.5994,1.79821 -0.9324,5.06163 -0.33301,3.26343 -0.33301,7.52585 0,5.92744 0.53281,9.59047 0.5328,3.59642 1.73161,5.72764 2.73062,4.86183 7.99205,4.86183 2.86382,0 4.59543,-1.53181 1.73162,-1.59841 1.73162,-4.19583 l 0,-12.18788 -9.25747,0 0,-3.33002 17.64912,0 z" />
    <path d="m 237.6738,732.53204 -7.92545,0 0,-44.4225 q 1.39861,-0.0666 2.26442,-0.0666 0.8658,-0.0666 1.66501,-0.1332 0.7992,-0.0666 1.66501,-0.1332 0.93241,-0.1332 2.33101,-0.333 l 0,45.0885 z" />
    <path d="m 261.27846,711.6861 q -0.86581,0.93241 -1.46521,1.39861 -0.5328,0.39961 -1.79821,1.06561 -1.13221,0.5994 -1.93141,0.99901 -0.73261,0.3996 -1.26541,0.7326 -0.46621,0.2664 -0.79921,0.59941 -0.333,0.2664 -0.5994,0.666 -0.79921,0.99901 -1.26541,2.66402 -0.4662,1.59841 -0.4662,3.46322 0,7.05965 3.99602,7.05965 1.13221,0 2.19782,-0.66601 1.1322,-0.7326 1.99801,-2.06461 0.73261,-1.19881 1.06561,-2.39762 0.333,-1.2654 0.333,-3.06362 l 0,-10.45627 z m 13.18689,20.24654 q -2.06461,0.5994 -3.33002,0.7992 -1.26541,0.26641 -2.79722,0.26641 -1.79821,0 -3.26342,-0.46621 -1.46521,-0.4662 -2.26442,-1.26541 -0.5328,-0.5328 -0.7992,-1.1988 -0.19981,-0.66601 -0.33301,-1.86482 -1.53181,2.73062 -3.52982,3.86283 -1.93141,1.13221 -4.99503,1.13221 -4.39563,0 -7.05965,-2.59742 -2.59742,-2.66402 -2.59742,-7.05965 0,-3.99602 1.99801,-6.26044 2.06462,-2.26441 7.12625,-3.79622 1.59841,-0.46621 2.59742,-0.79921 1.06561,-0.3996 1.73161,-0.666 0.73261,-0.33301 1.19881,-0.59941 0.5328,-0.2664 1.06561,-0.5994 2.13121,-1.53181 2.13121,-4.12923 0,-2.79722 -1.59841,-4.32903 -1.53181,-1.59841 -4.32903,-1.59841 -1.33201,0 -2.53082,0.4662 -1.1322,0.39961 -1.99801,1.19881 -0.79921,0.73261 -1.33201,1.79821 -0.4662,0.99901 -0.4662,2.19782 0,0.7326 0.1998,1.59841 0.1998,0.8658 0.7326,2.33101 l -4.32902,-0.9324 q -0.13321,-0.79921 -0.26641,-1.46521 -0.0666,-0.73261 -0.0666,-1.26541 0,-1.73161 0.86581,-3.13022 0.93241,-1.46521 2.53082,-2.46422 1.59841,-1.06561 3.86282,-1.59841 2.26442,-0.5994 4.99504,-0.5994 5.39463,0 8.52485,1.93141 3.13022,1.93141 3.13022,5.32804 l 0,20.17993 q 0,3.92943 2.46422,3.92943 0.4662,0 0.93241,-0.1332 0.4662,-0.1332 1.19881,-0.46621 l 0.5994,2.26442 z" />
    <path d="m 294.61303,709.28849 q 0.0666,-0.53281 0.0666,-0.86581 0,-0.333 0,-0.5994 0,-2.99702 -1.86481,-4.86184 -1.79822,-1.93141 -4.72864,-1.93141 -2.33101,0 -3.99602,1.46521 -1.66501,1.39861 -1.66501,3.39662 0,2.06462 1.79821,3.59643 1.79821,1.53181 6.39364,3.39662 1.66501,0.73261 2.79722,1.26541 1.19881,0.5328 1.99801,1.06561 0.86581,0.4662 1.46521,0.999 0.59941,0.53281 1.13221,1.13221 1.99801,2.59742 1.99801,5.72764 0,2.79722 -1.46521,5.19483 -1.3986,2.39762 -3.92942,3.66303 -1.26541,0.666 -2.99702,0.99901 -1.73161,0.333 -3.66303,0.333 -6.79324,0 -10.18987,-3.72963 -1.3986,-1.46521 -1.93141,-3.06362 -0.5328,-1.66501 -0.5994,-4.39563 l 4.39563,-0.9324 q -0.1332,0.7992 -0.2664,1.46521 -0.0666,0.5994 -0.0666,1.1322 0,1.53181 0.59941,2.86382 0.666,1.33201 1.73161,2.33102 1.13221,0.99901 2.59742,1.59841 1.46521,0.5328 3.06362,0.5328 2.53082,0 4.12923,-1.39861 1.59841,-1.39861 1.59841,-3.59642 0,-0.99901 -0.333,-1.79821 -0.26641,-0.79921 -1.06561,-1.46521 -0.79921,-0.73261 -2.19782,-1.46521 -1.39861,-0.73261 -3.52982,-1.59841 -5.19484,-2.13122 -7.65905,-4.72863 -2.39762,-2.66402 -2.39762,-6.12725 0,-2.13121 0.93241,-3.92942 0.9324,-1.86481 2.53081,-3.19682 1.66502,-1.33201 3.92943,-2.06462 2.26442,-0.7326 4.99504,-0.7326 5.52783,0 8.39165,3.33002 1.13221,1.26541 1.53181,2.59742 0.46621,1.33201 0.59941,3.52982 l -4.12923,0.86581 z" />
    <path d="m 320.90564,707.75668 q 7.05965,0 7.05965,-8.32506 0,-4.26243 -1.86482,-6.26044 -1.79821,-1.99802 -5.66104,-1.99802 l -5.52783,0 0,16.58352 5.99404,0 z m -0.66601,21.84494 q 9.12426,0 9.12426,-8.79126 0,-4.79523 -2.46421,-7.45925 -2.39762,-2.66401 -6.85985,-2.66401 l -5.12823,0 0,18.91452 5.32803,0 z m -14.31909,-41.49208 16.25051,0 q 6.85984,0 10.78927,2.93042 3.99603,2.93042 3.99603,8.05866 0,2.39761 -0.93241,4.39563 -0.93241,1.99801 -2.66402,3.26342 -1.73161,1.26541 -5.86084,2.26442 2.93042,0.666 4.52883,1.3986 1.66501,0.66601 2.99702,1.93142 1.73161,1.66501 2.66402,3.86282 0.99901,2.13122 0.99901,4.59543 0,2.59742 -1.06561,4.79524 -0.99901,2.13121 -2.86382,3.72962 -1.86481,1.53181 -4.52883,2.39762 -2.59742,0.7992 -5.79424,0.7992 l -18.51492,0 0,-44.4225 z" />
    <path d="m 370.9309,732.53204 -7.99206,0 0,-6.12724 q -1.19881,1.93142 -2.33101,3.26342 -1.06561,1.26541 -2.33102,2.06462 -1.26541,0.7992 -2.73062,1.13221 -1.39861,0.333 -3.26342,0.333 -4.12923,0 -6.32704,-2.06462 -0.99901,-0.9324 -1.46521,-2.46421 -0.46621,-1.59841 -0.46621,-4.06263 l 0,-24.84197 q 1.39861,-0.0666 2.26442,-0.1332 0.93241,-0.1332 1.73161,-0.1998 0.79921,-0.0666 1.66501,-0.1332 0.93241,-0.1332 2.33102,-0.333 l 0,25.84097 q 0,2.79722 0.7326,3.86283 0.79921,1.0656 2.79722,1.0656 1.59841,0 2.93042,-0.8658 1.39861,-0.86581 2.39762,-2.46422 0.999,-1.59841 1.53181,-3.79622 0.5328,-2.19782 0.5328,-4.86184 l 0,-17.98212 q 1.39861,-0.0666 2.26442,-0.1332 0.9324,-0.0666 1.73161,-0.1332 0.7992,-0.0666 1.66501,-0.1998 0.93241,-0.1332 2.33102,-0.333 l 0,33.56662 z" />
    <path d="m 391.54581,702.49524 -4.32902,0 0,24.90857 q 0,2.73062 1.59841,2.73062 1.1988,0 1.332,-1.79821 l 2.26442,0.1332 q -0.333,1.53181 -0.79921,2.26441 -0.3996,0.66601 -1.332,1.19881 -0.79921,0.4662 -1.93142,0.7326 -1.0656,0.26641 -2.26441,0.26641 -3.39663,0 -5.19484,-1.59841 -1.73161,-1.66502 -1.73161,-4.66204 l 0,-24.17596 -3.33002,0 0,-2.66402 3.33002,0 0,-5.66103 q 1.46521,-0.46621 2.39762,-0.73261 0.9324,-0.333 1.73161,-0.666 0.7992,-0.39961 1.66501,-0.93241 0.93241,-0.5328 2.26442,-1.33201 l 0,9.32406 4.32902,0 0,2.66402 z" />
    <path d="m 418.61161,702.49524 -15.8509,27.17298 15.8509,0 0,2.86382 -24.50896,0 0,-3.26342 15.85091,-26.77338 -14.3857,0 0,-2.73062 23.04375,0 0,2.73062 z" />
    <path d="m 440.88842,714.15032 q -0.1332,-7.05965 -1.33201,-10.05667 -1.1322,-2.99702 -3.79622,-2.99702 -1.66501,0 -2.99702,1.53181 -1.33201,1.46521 -1.79821,3.79623 -0.13321,0.7326 -0.26641,1.39861 -0.0666,0.666 -0.1998,1.53181 -0.0666,0.8658 -0.1332,1.99801 -0.0666,1.13221 -0.1332,2.79722 l 10.65607,0 z m 7.45925,7.79225 q -0.1332,2.73062 -0.5994,4.39563 -0.3996,1.66501 -1.39861,2.99702 -1.39861,1.86481 -3.99603,2.93042 -2.53081,0.99901 -5.86084,0.99901 -7.05964,0 -10.92247,-4.26243 -3.86283,-4.26243 -3.86283,-11.92148 0,-4.06263 0.99901,-7.39265 1.06561,-3.39662 2.86382,-5.79424 1.86481,-2.39762 4.46223,-3.66302 2.59742,-1.33201 5.79424,-1.33201 4.19583,0 7.05965,2.13121 2.86381,2.13122 4.19582,6.32704 0.53281,1.59841 0.73261,3.79623 0.2664,2.19781 0.2664,5.52784 l -17.84892,0 q 0.0666,2.19781 0.1332,3.72962 0.0666,1.53181 0.1998,2.66402 0.1332,1.06561 0.2664,1.93141 0.19981,0.79921 0.53281,1.53181 1.59841,4.66203 6.66004,4.66203 2.99702,0 4.92844,-2.06461 1.99801,-2.13121 1.99801,-5.32804 0,-1.2654 -0.1998,-2.86381 l 3.59642,0.999 z" />
    <path d="m 473.05227,732.53204 0,-25.17497 q 0,-2.53081 -0.7992,-3.59642 -0.79921,-1.06561 -2.73062,-1.06561 -2.93042,0 -5.12824,3.26342 -0.999,1.53181 -1.66501,3.39663 -0.666,1.79821 -0.666,3.26342 l 0,19.91353 -7.99206,0 0,-32.83402 q 1.39861,0 2.26442,0 0.9324,-0.0666 1.73161,-0.1332 0.79921,-0.1332 1.66501,-0.2664 0.93241,-0.1332 2.33102,-0.3996 l 0,7.12624 q 1.33201,-1.93141 2.13121,-2.93041 0.86581,-0.99901 1.99801,-1.79822 3.26343,-2.33101 6.99305,-2.33101 3.59643,0 5.66104,2.13121 2.06461,2.06462 2.06461,5.66104 l 0,25.77437 -7.85885,0 z" />
  </g>
</svg>
