<?xml version="1.0" encoding="UTF-8"?>
<!DOCTYPE svg PUBLIC "-//W3C//DTD SVG 1.1//EN" "http://www.w3.org/Graphics/SVG/1.1/DTD/svg11.dtd">
<!-- Creator: CorelDRAW Home & Student X6 -->
<svg xmlns="http://www.w3.org/2000/svg" xml:space="preserve" version="1.1" style="shape-rendering:geometricPrecision; text-rendering:geometricPrecision; image-rendering:optimizeQuality; fill-rule:evenodd; clip-rule:evenodd"
viewBox="0 0 29700 21000"
 xmlns:xlink="http://www.w3.org/1999/xlink">
 <defs>
  <style type="text/css">
   <![CDATA[
    .fil0 {fill:#2B2A29}
    .fil3 {fill:#006633}
    .fil2 {fill:url(#id0)}
    .fil1 {fill:url(#id1)}
   ]]>
  </style>
  <linearGradient id="id0" gradientUnits="userSpaceOnUse" x1="20248" y1="9506.48" x2="26150.3" y2="9506.48">
   <stop offset="0" style="stop-color:#99CC33"/>
   <stop offset="0.65098" style="stop-color:#DEDC00"/>
   <stop offset="0.709804" style="stop-color:#FEFEFE"/>
   <stop offset="0.768627" style="stop-color:#DEDC00"/>
   <stop offset="1" style="stop-color:#99CC33"/>
  </linearGradient>
  <linearGradient id="id1" gradientUnits="userSpaceOnUse" x1="22247.1" y1="11914.9" x2="26040.8" y2="11914.9">
   <stop offset="0" style="stop-color:#99CC33"/>
   <stop offset="0.768627" style="stop-color:#FECC00"/>
   <stop offset="0.831373" style="stop-color:#FEFEFE"/>
   <stop offset="0.878431" style="stop-color:#FECC00"/>
   <stop offset="1" style="stop-color:#99CC33"/>
  </linearGradient>
 </defs>
 <g id="Ebene_x0020_1">
  <metadata id="CorelCorpID_0Corel-Layer"/>
  <polygon class="fil0" points="26041,10318 26068,10373 24767,14154 22275,13174 22247,13119 24739,14099 "/>
  <polygon class="fil1" points="24589,9747 26041,10318 24739,14099 22247,13119 23413,9731 "/>
  <polygon class="fil0" points="26150,7319 26193,7404 24168,13286 20291,11762 20248,11676 24125,13201 "/>
  <polygon class="fil2" points="26150,7319 24125,13201 20248,11676 22302,5812 "/>
  <path class="fil0" d="M5879 11066l0 -504c0,-28 -23,-43 -45,-43 -22,0 -44,18 -44,43l0 504c0,29 16,46 44,46 27,0 45,-16 45,-46zm1051 -347c0,-32 -22,-51 -50,-51 -38,0 -87,16 -140,26l0 -196c0,-24 -13,-43 -42,-43 -31,0 -46,18 -46,43l0 215c-132,29 -422,117 -552,172l0 -280c0,-27 -14,-54 -42,-54 -35,0 -47,28 -47,54l0 313c-10,11 -12,21 -12,40 0,12 5,28 12,37l0 79c0,30 13,48 47,48 31,0 42,-18 42,-48l0 -102c96,-54 395,-143 552,-182l0 270c0,27 18,49 44,49 32,0 44,-18 44,-49l0 -286c59,-10 103,-15 142,-20 23,-4 48,-18 48,-37zm863 173c0,-110 -70,-201 -201,-201 -80,0 -128,10 -190,25 72,-59 129,-147 129,-180 0,-35 -23,-66 -72,-66 -86,0 -278,73 -378,125l0 -30c0,-24 -18,-48 -42,-48 -28,0 -47,21 -47,48l0 306c-12,4 -27,7 -34,20 -8,11 -12,33 -12,47 0,32 14,45 31,45 6,0 11,-3 16,-7l0 128c0,28 19,53 47,51 23,-2 42,-26 42,-51l0 -173c163,-96 337,-160 511,-160 76,0 112,48 112,119 0,86 -27,171 -50,229 -11,29 -19,47 -19,66 0,13 14,28 35,28 20,0 41,-15 55,-50 38,-90 67,-178 67,-273zm-363 -330c0,39 -173,192 -349,274l0 -144c106,-60 277,-140 334,-140 10,0 15,5 15,11zm1837 153c0,-24 -64,-35 -107,-35 -41,0 -82,55 -86,96 -140,116 -442,271 -565,271 -55,0 -91,-17 -91,-54 0,-110 255,-284 446,-379 26,0 29,14 60,14 24,0 115,-38 160,-74 18,-14 26,-39 26,-46 0,-27 -25,-50 -66,-50 -27,0 -35,1 -74,18 -212,93 -643,333 -643,516 0,82 76,130 182,130 152,0 428,-155 565,-241l0 182c0,41 11,59 46,59 31,0 42,-23 42,-59l0 -246c38,-25 105,-79 105,-102zm817 167c0,-28 -21,-45 -40,-45 -13,0 -26,3 -32,8 -5,5 -17,15 -21,18 -103,54 -387,161 -535,161 -25,0 -38,-12 -38,-27l0 -446c0,-22 -23,-43 -45,-43 -22,0 -44,19 -44,43l0 446c0,60 44,107 127,107 131,0 456,-117 578,-169 19,-9 50,-31 50,-54zm1100 -24c0,-27 -20,-35 -47,-35 -74,0 -184,7 -301,19 -96,-98 -186,-207 -242,-300 -11,-18 -26,-33 -54,-33 -25,0 -38,18 -51,38l-211 369c-31,6 -57,11 -78,16 -23,6 -46,6 -68,19 -18,11 -20,33 -20,54 0,15 14,37 35,37 22,0 38,-10 58,-17 3,-1 7,-2 11,-4l-37 64c-11,19 -12,25 -12,45 0,27 12,40 40,40 29,0 39,-16 50,-38 22,-44 65,-114 77,-137 139,-30 299,-56 459,-74 53,54 107,104 161,141 16,12 26,22 46,22 22,0 44,-17 44,-39 0,-18 -23,-48 -41,-61 -30,-23 -61,-47 -92,-75 91,-7 171,-11 227,-11 31,0 47,-15 47,-40zm-456 -7c-118,12 -235,29 -335,45l156 -277c42,64 106,152 179,232zm1396 -69c0,-70 -56,-110 -136,-110 -189,0 -464,97 -619,167 88,-97 233,-193 330,-235 45,-20 86,-20 86,-58 0,-32 -27,-41 -48,-41 -29,0 -35,6 -57,17 -109,56 -292,165 -404,289 -32,35 -41,67 -41,97 0,22 22,38 45,38 32,0 76,-15 90,-22 135,-55 381,-171 597,-171 40,0 61,10 61,34 0,92 -141,187 -318,231 -2,-19 -14,-38 -35,-38 -51,0 -97,15 -148,24 -37,7 -54,50 -54,79 0,25 19,37 48,37 297,0 603,-183 603,-339zm948 11c0,-29 -15,-38 -34,-38 -8,0 -17,3 -30,9 -10,4 -13,14 -25,22 -165,108 -475,221 -649,221 -34,0 -47,-12 -47,-34l0 -146c116,-54 338,-115 478,-141 23,-5 51,-22 51,-41 0,-23 -18,-45 -42,-45 -17,0 -28,3 -46,7 -94,23 -333,85 -441,133l0 -73c70,-31 204,-66 299,-86 16,-3 36,3 58,0 37,-4 54,-24 54,-49 0,-32 -19,-48 -44,-48 -12,0 -29,2 -43,6 -79,15 -247,55 -324,86l0 -9c0,-26 -22,-45 -45,-45 -25,0 -44,19 -44,45l0 406c0,85 33,115 136,115 199,0 521,-131 700,-249 15,-10 37,-29 37,-44zm862 98c0,-110 -70,-201 -201,-201 -80,0 -128,10 -190,25 72,-59 129,-147 129,-180 0,-35 -23,-66 -72,-66 -86,0 -278,73 -378,125l0 -30c0,-24 -18,-48 -42,-48 -28,0 -47,21 -47,48l0 306c-12,4 -27,7 -34,20 -8,11 -12,33 -12,47 0,32 14,45 31,45 6,0 11,-3 16,-7l0 128c0,28 19,53 47,51 23,-2 42,-26 42,-51l0 -173c163,-96 337,-160 511,-160 76,0 112,48 112,119 0,86 -27,171 -50,229 -11,29 -19,47 -19,66 0,13 14,28 35,28 20,0 41,-15 55,-50 38,-90 67,-178 67,-273zm-363 -330c0,39 -173,192 -349,274l0 -144c106,-60 277,-140 334,-140 10,0 15,5 15,11zm971 504l0 -504c0,-28 -23,-43 -45,-43 -22,0 -44,18 -44,43l0 504c0,29 16,46 44,46 27,0 45,-16 45,-46zm1040 -491c0,-19 -41,-68 -68,-68 -27,0 -45,20 -45,48l0 16c-91,84 -270,226 -407,293 -12,6 -23,11 -35,11 -12,0 -16,-2 -28,-8 -68,-35 -176,-130 -230,-212 -7,-11 -11,-13 -11,-42l0 -51c0,-23 -20,-42 -45,-42 -29,0 -44,19 -44,42l0 477c0,39 16,52 44,52 27,0 45,-13 45,-52l0 -265c57,64 154,144 231,183 18,9 31,11 44,11 13,0 31,-2 48,-11 150,-89 297,-190 387,-273l0 356c0,32 18,52 45,52 23,0 43,-28 43,-52l0 -422c14,-10 25,-26 25,-42zm1474 140c0,-24 -64,-35 -107,-35 -41,0 -82,55 -86,96 -140,116 -442,271 -565,271 -55,0 -91,-17 -91,-54 0,-110 255,-284 446,-379 26,0 29,14 60,14 24,0 115,-38 160,-74 18,-14 26,-39 26,-46 0,-27 -25,-50 -66,-50 -27,0 -35,1 -74,18 -212,93 -643,333 -643,516 0,82 76,130 182,130 152,0 428,-155 565,-241l0 182c0,41 11,59 46,59 31,0 42,-23 42,-59l0 -246c38,-25 105,-79 105,-102zm863 177c0,-110 -70,-201 -201,-201 -80,0 -128,10 -190,25 72,-59 129,-147 129,-180 0,-35 -23,-66 -72,-66 -86,0 -278,73 -378,125l0 -30c0,-24 -18,-48 -42,-48 -28,0 -47,21 -47,48l0 306c-12,4 -27,7 -34,20 -8,11 -12,33 -12,47 0,32 14,45 31,45 6,0 11,-3 16,-7l0 128c0,28 19,53 47,51 23,-2 42,-26 42,-51l0 -173c163,-96 337,-160 511,-160 76,0 112,48 112,119 0,86 -27,171 -50,229 -11,29 -19,47 -19,66 0,13 14,28 35,28 20,0 41,-15 55,-50 38,-90 67,-178 67,-273zm-363 -330c0,39 -173,192 -349,274l0 -144c106,-60 277,-140 334,-140 10,0 15,5 15,11zm1325 231c0,-29 -15,-38 -34,-38 -8,0 -17,3 -30,9 -10,4 -13,14 -25,22 -165,108 -475,221 -649,221 -34,0 -47,-12 -47,-34l0 -146c116,-54 338,-115 478,-141 23,-5 51,-22 51,-41 0,-23 -18,-45 -42,-45 -17,0 -28,3 -46,7 -94,23 -333,85 -441,133l0 -73c70,-31 204,-66 299,-86 16,-3 36,3 58,0 37,-4 54,-24 54,-49 0,-32 -19,-48 -44,-48 -12,0 -29,2 -43,6 -79,15 -247,55 -324,86l0 -9c0,-26 -22,-45 -45,-45 -25,0 -44,19 -44,45l0 406c0,85 33,115 136,115 199,0 521,-131 700,-249 15,-10 37,-29 37,-44zm862 83c0,-185 -56,-300 -94,-369 -11,-21 -21,-40 -50,-40 -33,0 -48,23 -48,44 0,20 18,32 26,44 39,58 77,158 77,321 0,78 -17,127 -65,127 -133,0 -402,-266 -558,-438 -1,-20 -16,-41 -44,-41 -26,0 -45,21 -45,45l0 503c0,30 21,46 45,46 26,0 44,-17 44,-46l0 -389c140,155 411,409 558,409 99,0 154,-79 154,-216zm920 157c0,-37 -120,-84 -156,-84 -27,0 -49,10 -49,34 0,7 0,12 1,18l-534 0 552 -394c32,-23 61,-56 61,-80 0,-25 -39,-40 -61,-37 -137,22 -462,54 -595,61 -33,2 -51,12 -51,47 0,32 14,47 51,47 22,0 29,-8 47,-10 116,-10 319,-34 441,-53l-536 374c-24,20 -43,43 -43,76 0,28 21,49 71,49l743 0c22,0 57,-21 57,-49zm829 -151c0,-28 -21,-45 -40,-45 -13,0 -26,3 -32,8 -5,5 -17,15 -21,18 -103,54 -387,161 -535,161 -25,0 -38,-12 -38,-27l0 -446c0,-22 -23,-43 -45,-43 -22,0 -44,19 -44,43l0 446c0,60 44,107 127,107 131,0 456,-117 578,-169 19,-9 50,-31 50,-54zm1100 -24c0,-27 -20,-35 -47,-35 -74,0 -184,7 -301,19 -96,-98 -186,-207 -242,-300 -11,-18 -26,-33 -54,-33 -25,0 -38,18 -51,38l-211 369c-31,6 -57,11 -78,16 -23,6 -46,6 -68,19 -18,11 -20,33 -20,54 0,15 14,37 35,37 22,0 38,-10 58,-17 3,-1 7,-2 11,-4l-37 64c-11,19 -12,25 -12,45 0,27 12,40 40,40 29,0 39,-16 50,-38 22,-44 65,-114 77,-137 139,-30 299,-56 459,-74 53,54 107,104 161,141 16,12 26,22 46,22 22,0 44,-17 44,-39 0,-18 -23,-48 -41,-61 -30,-23 -61,-47 -92,-75 91,-7 171,-11 227,-11 31,0 47,-15 47,-40zm-456 -7c-118,12 -235,29 -335,45l156 -277c42,64 106,152 179,232zm1319 25c0,-185 -56,-300 -94,-369 -11,-21 -21,-40 -50,-40 -33,0 -48,23 -48,44 0,20 18,32 26,44 39,58 77,158 77,321 0,78 -17,127 -65,127 -133,0 -402,-266 -558,-438 -1,-20 -16,-41 -44,-41 -26,0 -45,21 -45,45l0 503c0,30 21,46 45,46 26,0 44,-17 44,-46l0 -389c140,155 411,409 558,409 99,0 154,-79 154,-216zm822 -278c0,-62 -60,-105 -124,-105 -145,0 -412,70 -534,110l0 -19c0,-26 -19,-49 -45,-49 -32,0 -44,22 -44,49l0 430c0,8 2,17 7,24 -5,7 -8,14 -8,27 0,25 22,41 48,41 33,0 64,-11 97,-22 230,-73 604,-303 604,-485zm-91 0c0,153 -339,356 -567,421l0 -321c152,-61 368,-122 534,-122 13,0 33,10 33,22z"/>
  <path class="fil3" d="M6886 8518l1139 0 0 1509 -175 0 -79 -219c-254,206 -412,263 -740,263 -881,0 -1240,-676 -1240,-1479 0,-785 421,-1505 1275,-1505 543,0 784,298 872,807l-267 136c0,-360 -118,-755 -556,-755 -679,0 -692,812 -692,1308 0,553 13,1277 627,1312 219,0 447,-118 447,-369l0 -799 -609 0 0 -211zm2011 -1430l0 2225 0 711 -499 0 0 -2216 0 -676c162,-9 337,-18 499,-44zm2353 2900c-114,31 -263,66 -399,66 -202,0 -381,-70 -421,-303 -127,202 -307,320 -548,320 -390,0 -627,-263 -627,-649 0,-807 1157,-518 1157,-1075 0,-259 -197,-377 -399,-377 -193,0 -394,118 -394,369 0,97 35,171 66,250l-280 -61c-9,-31 -9,-70 -9,-105 0,-373 351,-575 727,-575 307,0 793,61 793,469l0 1312c0,149 66,246 175,246 39,0 83,-13 123,-35l35 149zm-846 -1321c-254,312 -618,193 -618,724 0,171 18,496 232,496 272,0 386,-312 386,-535l0 -684zm2410 -197l-267 44c0,-268 -92,-540 -407,-540 -188,0 -381,136 -381,325 0,540 1135,360 1135,1114 0,448 -394,658 -789,658 -460,0 -815,-241 -815,-720l285 -70c-4,39 -9,75 -9,105 0,298 162,544 513,544 184,0 359,-123 359,-312 0,-487 -1109,-408 -1109,-1110 0,-439 412,-663 811,-663 386,0 644,215 675,623zm399 1553l0 -2216 0 -671 1047 0c451,0 951,189 951,715 0,391 -280,562 -609,645 399,83 723,316 723,763 0,518 -464,763 -933,763l-1179 0zm570 -197l346 0c372,0 583,-176 583,-557 0,-382 -193,-671 -591,-671l-337 0 0 1229zm0 -1413l381 0c315,0 469,-263 469,-522 0,-272 -166,-557 -491,-557l-359 0 0 1079zm3536 -566l0 2181 -513 0 0 -399c-162,285 -329,443 -679,443 -390,0 -530,-176 -530,-553l0 -1619c167,-9 342,-26 513,-53l0 1680c0,180 18,312 237,312 368,0 460,-487 460,-777l0 -1163c171,-9 346,-26 513,-53zm1266 44l0 176 -276 0 0 1623c0,66 9,167 92,176 79,0 101,-61 101,-118l145 9c-44,219 -219,290 -421,290 -254,0 -429,-136 -429,-408l0 -1571 -219 0 0 -176 219 0 0 -373c180,-53 346,-136 513,-241l0 614 276 0zm1713 4l0 184 -1021 1755 1021 0 0 189 -1582 0 0 -215 1021 -1729 -933 0 0 -184 1494 0zm1669 1373l228 70c-18,474 -267,733 -754,733 -705,0 -968,-478 -968,-1119 0,-535 324,-1106 924,-1106 662,0 780,623 780,1141l-1148 0c9,369 0,943 486,943 324,0 460,-272 460,-548 0,-35 -4,-75 -9,-114zm-938 -434l688 0c-9,-224 0,-860 -320,-860 -368,0 -359,601 -368,860zm3203 1189l-504 0 0 -1632c0,-136 -26,-298 -219,-298 -285,0 -486,382 -486,641l0 1290 -513 0 0 -2132c175,0 342,-18 513,-44l0 461c158,-237 386,-461 688,-461 320,0 521,189 521,509l0 1667z"/>
 </g>
</svg>
