<?xml version="1.0" encoding="UTF-8" standalone="no"?>
<svg xmlns="http://www.w3.org/2000/svg" version="1.1" viewBox="-81 -50 1100 1100">
  <defs>
    <filter id="drop-shadow" x="-20%" y="-20%" width="140%" height="140%">
      <feGaussianBlur in="SourceAlpha" stdDeviation="36" />
      <feOffset dx="12" dy="12" result="offsetblur"/>
      <feFlood flood-color="rgba(15,108,58,0.5)"/>
      <feComposite in2="offsetblur" operator="in"/>
      <feMerge>
        <feMergeNode/>
        <feMergeNode in="SourceGraphic"/>
      </feMerge>
    </filter>
  </defs>
  <g filter="url(#drop-shadow)">
    <path fill="#93F0C5" d="M833.75 759.75q42.5 0 73.125 30.625t30.625 74.375q0 42.5 -30 73.125t-73.75 30.625l-730 0q-43.75 0 -73.75 -30.625t-30 -73.125q0 -43.75 30.625 -74.375t73.125 -30.625l730 0zm0 -363.75q43.75 0 73.75 30.625t30 73.125 -30 73.125 -73.75 30.625l-730 0q-43.75 0 -73.75 -30.625t-30 -73.125 30 -73.125 73.75 -30.625l730 0zm0 -365q43.75 0 73.75 30.625t30 73.125q0 43.75 -30.625 74.375t-73.125 30.625l-730 0q-42.5 0 -73.125 -30.625t-30.625 -74.375q0 -42.5 30 -73.125t73.75 -30.625l730 0z"/>
  </g>
</svg>
